<?xml version="1.0" encoding="UTF-8" standalone="no"?>
<!-- Created with Inkscape (http://www.inkscape.org/) -->

<svg
   xmlns:dc="http://purl.org/dc/elements/1.1/"
   xmlns:cc="http://creativecommons.org/ns#"
   xmlns:rdf="http://www.w3.org/1999/02/22-rdf-syntax-ns#"
   xmlns:svg="http://www.w3.org/2000/svg"
   xmlns="http://www.w3.org/2000/svg"
   xmlns:sodipodi="http://sodipodi.sourceforge.net/DTD/sodipodi-0.dtd"
   xmlns:inkscape="http://www.inkscape.org/namespaces/inkscape"
   width="200"
   height="200"
   viewBox="0 0 52.916665 52.916668"
   version="1.1"
   id="svg8"
   inkscape:version="0.92.3 (2405546, 2018-03-11)"
   sodipodi:docname="icono.svg">
  <defs
     id="defs2" />
  <sodipodi:namedview
     id="base"
     pagecolor="#ffffff"
     bordercolor="#666666"
     borderopacity="1.0"
     inkscape:pageopacity="0.0"
     inkscape:pageshadow="2"
     inkscape:zoom="2"
     inkscape:cx="124.16944"
     inkscape:cy="54.883068"
     inkscape:document-units="mm"
     inkscape:current-layer="layer1"
     showgrid="true"
     units="px"
     inkscape:window-width="1366"
     inkscape:window-height="745"
     inkscape:window-x="-8"
     inkscape:window-y="-8"
     inkscape:window-maximized="1"
     inkscape:snap-global="false">
    <inkscape:grid
       type="xygrid"
       id="grid4293" />
  </sodipodi:namedview>
  <metadata
     id="metadata5">
    <rdf:RDF>
      <cc:Work
         rdf:about="">
        <dc:format>image/svg+xml</dc:format>
        <dc:type
           rdf:resource="http://purl.org/dc/dcmitype/StillImage" />
        <dc:title></dc:title>
      </cc:Work>
    </rdf:RDF>
  </metadata>
  <g
     inkscape:label="Capa 1"
     inkscape:groupmode="layer"
     id="layer1"
     transform="translate(0,-244.08332)">
    <rect
       style="fill:#ecf0f1;fill-opacity:1;fill-rule:evenodd;stroke:none;stroke-width:2.16031361;stroke-linejoin:miter;stroke-miterlimit:4;stroke-dasharray:none;stroke-dashoffset:0;stroke-opacity:1"
       id="rect815"
       width="52.916668"
       height="52.916668"
       x="2.5687237e-008"
       y="244.08334" />
    <ellipse
       style="opacity:0.98999999;vector-effect:none;fill:none;fill-opacity:1;fill-rule:evenodd;stroke:none;stroke-width:0.03431891;stroke-linecap:butt;stroke-linejoin:miter;stroke-miterlimit:4;stroke-dasharray:none;stroke-dashoffset:0;stroke-opacity:1"
       id="path8927"
       ry="1.8309351"
       rx="13.727564"
       cy="248.90379"
       cx="109.0301"
       transform="rotate(18.07388)" />
    <ellipse
       cx="109.0301"
       cy="248.90376"
       rx="19.060112"
       ry="2.5421717"
       id="ellipse8935"
       style="opacity:0.98999999;vector-effect:none;fill:none;fill-opacity:1;fill-rule:evenodd;stroke:none;stroke-width:0.03431891;stroke-linecap:butt;stroke-linejoin:miter;stroke-miterlimit:4;stroke-dasharray:none;stroke-dashoffset:0;stroke-opacity:1"
       transform="rotate(18.07388)" />
    <circle
       style="opacity:0.98999999;vector-effect:none;fill:#e67e22;fill-opacity:1;fill-rule:evenodd;stroke:none;stroke-width:1.02956736;stroke-linecap:butt;stroke-linejoin:miter;stroke-miterlimit:4;stroke-dasharray:none;stroke-dashoffset:0;stroke-opacity:1"
       id="path8923"
       cx="108.88302"
       cy="248.4456"
       r="10.295673"
       transform="rotate(18.07388)" />
    <path
       id="circle8925"
       style="opacity:0.98999999;vector-effect:none;fill:#d35400;fill-opacity:1;fill-rule:evenodd;stroke:none;stroke-width:1.02956736;stroke-linecap:butt;stroke-linejoin:miter;stroke-miterlimit:4;stroke-dasharray:none;stroke-dashoffset:0;stroke-opacity:1"
       sodipodi:type="arc"
       sodipodi:cx="108.88302"
       sodipodi:cy="248.4456"
       sodipodi:rx="10.295673"
       sodipodi:ry="10.295673"
       sodipodi:start="5.6102143"
       sodipodi:end="2.4731993"
       sodipodi:open="true"
       d="m 116.93396,242.02819 a 10.295673,10.295673 0 0 1 1.52642,10.19564 10.295673,10.295673 0 0 1 -8.07626,6.40743 10.295673,10.295673 0 0 1 -9.58133,-3.80516"
       transform="rotate(18.07388)" />
    <path
       cx="26.571726"
       cy="273.51822"
       rx="10.583333"
       ry="2.9765625"
       id="path8931"
       style="opacity:0.98999999;vector-effect:none;fill:none;fill-opacity:1;fill-rule:evenodd;stroke:#000000;stroke-width:0.79374999;stroke-linecap:butt;stroke-linejoin:miter;stroke-miterlimit:4;stroke-dasharray:none;stroke-dashoffset:0;stroke-opacity:1" />
    <path
       id="ellipse8933"
       style="opacity:0.98999999;vector-effect:none;fill:none;fill-opacity:1;fill-rule:evenodd;stroke:none;stroke-width:0.03431891;stroke-linecap:butt;stroke-linejoin:miter;stroke-miterlimit:4;stroke-dasharray:none;stroke-dashoffset:0;stroke-opacity:1"
       sodipodi:type="arc"
       sodipodi:cx="109.0301"
       sodipodi:cy="248.90379"
       sodipodi:rx="13.727564"
       sodipodi:ry="1.8309351"
       sodipodi:start="0"
       sodipodi:end="3.20444"
       d="m 122.75766,248.90379 a 13.727564,1.8309351 0 0 1 -7.11432,1.60447 13.727564,1.8309351 0 0 1 -13.96896,-0.0586 13.727564,1.8309351 0 0 1 -6.344744,-1.66089"
       sodipodi:open="true"
       transform="rotate(18.07388)" />
    <path
       sodipodi:open="true"
       d="m 128.09021,248.90376 a 19.060112,2.5421717 0 0 1 -9.87792,2.22773 19.060112,2.5421717 0 0 1 -19.395277,-0.0813 19.060112,2.5421717 0 0 1 -8.809398,-2.30608"
       sodipodi:end="3.20444"
       sodipodi:start="0"
       sodipodi:ry="2.5421717"
       sodipodi:rx="19.060112"
       sodipodi:cy="248.90376"
       sodipodi:cx="109.0301"
       sodipodi:type="arc"
       style="opacity:0.98999999;vector-effect:none;fill:none;fill-opacity:1;fill-rule:evenodd;stroke:none;stroke-width:0.03431891;stroke-linecap:butt;stroke-linejoin:miter;stroke-miterlimit:4;stroke-dasharray:none;stroke-dashoffset:0;stroke-opacity:1"
       id="path8937"
       transform="rotate(18.07388)" />
    <path
       style="opacity:0.98999999;vector-effect:none;fill:#f39c12;fill-opacity:1;fill-rule:evenodd;stroke:none;stroke-width:0.00433342;stroke-linecap:butt;stroke-linejoin:miter;stroke-miterlimit:4;stroke-dasharray:none;stroke-dashoffset:0;stroke-opacity:1"
       d="m 35.097452,275.43249 c 0.02786,-0.0854 0.391411,-0.64243 0.428493,-0.66464 0.02375,-0.0142 0.351309,0.0723 0.684698,0.12289 2.373928,0.36085 3.521622,0.21549 3.290088,-0.41671 -0.145953,-0.39851 -1.123614,-1.10961 -2.485015,-1.80747 l -0.578665,-0.29681 0.0678,-0.3218 c 0.04124,-0.17571 0.10069,-0.50516 0.10069,-0.50516 0,0 0.01621,-0.012 0.248163,0.0915 0.129078,0.0575 0.602479,0.26604 1.051983,0.46353 4.271153,1.87605 6.827348,3.52309 6.591138,4.24689 -0.144226,0.44194 -1.381198,0.55747 -3.415786,0.31905 -1.323154,-0.15506 -2.88944,-0.43799 -4.857688,-0.87749 -0.987432,-0.22053 -1.164955,-0.2168 -1.150768,-0.26027 z"
       id="path8951"
       inkscape:connector-curvature="0"
       sodipodi:nodetypes="cccccccccsssscc" />
    <path
       style="opacity:0.98999999;vector-effect:none;fill:#f39c12;fill-opacity:1;fill-rule:evenodd;stroke:none;stroke-width:0.00076605;stroke-linecap:butt;stroke-linejoin:miter;stroke-miterlimit:4;stroke-dasharray:none;stroke-dashoffset:0;stroke-opacity:1"
       d="m 28.509855,273.03644 0.123276,0.035 c 0.0537,0.0154 0.210399,0.0602 0.347977,0.10042 2.271123,0.6648 4.594458,1.23305 6.349957,1.55294 0.108427,0.0197 0.198291,0.0383 0.199765,0.0411 0.0062,0.0125 -0.200202,0.37717 -0.358616,0.63334 l -0.08772,0.14186 -0.04298,-0.009 c -0.06362,-0.0134 -0.586545,-0.14208 -0.95624,-0.23507 -1.646037,-0.41384 -3.488505,-0.92382 -5.199219,-1.43908 -0.181484,-0.055 -0.38243,-0.11428 -0.446011,-0.13335 l -0.141179,-0.0602 c 0.07502,-0.21538 0.147476,-0.40932 0.211023,-0.62825 z"
       id="path8953"
       inkscape:connector-curvature="0"
       sodipodi:nodetypes="ccccccccccccc" />
    <path
       style="opacity:0.98999999;vector-effect:none;fill:#f39c12;fill-opacity:1;fill-rule:evenodd;stroke:none;stroke-width:0.00216671;stroke-linecap:butt;stroke-linejoin:miter;stroke-miterlimit:4;stroke-dasharray:none;stroke-dashoffset:0;stroke-opacity:1"
       d="m 22.957892,271.92782 c -0.320392,-0.11297 -0.653914,-0.23023 -0.741217,-0.2604 -0.08822,-0.0309 -0.271097,-0.0822 -0.267684,-0.0926 0.308466,-0.12871 0.646148,-0.20456 0.964473,-0.36008 l 0.586809,0.20097 c 0.643531,0.23295 4.515433,1.49579 4.805422,1.56752 l 0.227655,0.061 -0.114887,0.30923 -0.103435,0.31695 -0.390617,-0.11254 c -0.485323,-0.13987 -4.176119,-1.35086 -4.96678,-1.6293 z"
       id="path8955"
       inkscape:connector-curvature="0"
       sodipodi:nodetypes="cccccccccccc" />
    <path
       style="opacity:0.98999999;vector-effect:none;fill:#f39c12;fill-opacity:1;fill-rule:evenodd;stroke:none;stroke-width:0.00216671;stroke-linecap:butt;stroke-linejoin:miter;stroke-miterlimit:4;stroke-dasharray:none;stroke-dashoffset:0;stroke-opacity:1"
       d="m 21.288638,271.33642 c -1.717438,-0.6297 -3.001342,-1.10675 -4.657493,-1.8057 l -0.640869,-0.27047 c 0.03363,-0.30641 0.21364,-0.54856 0.215577,-0.84649 0.0091,-0.004 0.286225,0.13359 0.533485,0.25288 1.453074,0.70066 3.349952,1.49468 5.220253,2.18518 0.330014,0.1219 0.684645,0.25604 0.788035,0.2982 l 0.187994,0.0766 -0.481315,0.17911 -0.481315,0.1791 -0.118368,-0.0418 c -0.06499,-0.0233 -0.319805,-0.11593 -0.566093,-0.2063 z"
       id="path8957"
       inkscape:connector-curvature="0"
       sodipodi:nodetypes="csccscccccccc" />
    <path
       style="opacity:0.98999999;vector-effect:none;fill:#f39c12;fill-opacity:1;fill-rule:evenodd;stroke:none;stroke-width:0.00216671;stroke-linecap:butt;stroke-linejoin:miter;stroke-miterlimit:4;stroke-dasharray:none;stroke-dashoffset:0;stroke-opacity:1"
       d="m 15.773028,269.17147 c -2.390447,-1.03478 -4.110659,-1.88029 -5.376071,-2.64241 -0.7472956,-0.45008 -1.2163146,-0.78573 -1.5819027,-1.1321 -0.5503042,-0.52136 -0.63336,-0.85689 -0.2658382,-1.07399 0.7180001,-0.42413 3.1837649,-0.24965 6.6914939,0.47349 0.917307,0.18911 2.033213,0.43581 2.041393,0.45191 -0.139337,0.26579 -0.256244,0.52552 -0.370288,0.79931 -0.0059,0.003 -0.232706,-0.0283 -0.476824,-0.0639 -1.39502,-0.20334 -2.396894,-0.21583 -2.830082,-0.0353 -0.141846,0.0591 -0.209254,0.12506 -0.247441,0.24208 -0.0566,0.17344 0.03858,0.3577 0.33058,0.63988 0.398423,0.38504 1.249967,0.9261 2.339,1.48618 l 0.212837,0.10943 -0.03775,0.30677 c -0.03349,0.27216 -0.04714,0.4175 -0.05143,0.54731 -0.0015,0.0453 -0.06245,0.0278 -0.37769,-0.10864 z"
       id="path8959"
       inkscape:connector-curvature="0"
       sodipodi:nodetypes="ccccsccccsccccccc" />
  </g>
</svg>
