<?xml version="1.0" encoding="UTF-8" standalone="no"?>
<!-- Created with Inkscape (http://www.inkscape.org/) -->

<svg
   xmlns:dc="http://purl.org/dc/elements/1.1/"
   xmlns:cc="http://creativecommons.org/ns#"
   xmlns:rdf="http://www.w3.org/1999/02/22-rdf-syntax-ns#"
   xmlns:svg="http://www.w3.org/2000/svg"
   xmlns="http://www.w3.org/2000/svg"
   xmlns:sodipodi="http://sodipodi.sourceforge.net/DTD/sodipodi-0.dtd"
   xmlns:inkscape="http://www.inkscape.org/namespaces/inkscape"
   width="200"
   height="200"
   viewBox="0 0 52.916665 52.916668"
   version="1.1"
   id="svg8"
   inkscape:version="0.92.3 (2405546, 2018-03-11)"
   sodipodi:docname="icono.svg">
  <defs
     id="defs2">
    <filter
       inkscape:collect="always"
       style="color-interpolation-filters:sRGB"
       id="filter1611"
       x="-0.16714313"
       width="1.3342863"
       y="-0.42545278"
       height="1.8509056">
      <feGaussianBlur
         inkscape:collect="always"
         stdDeviation="0.0460659"
         id="feGaussianBlur1613" />
    </filter>
  </defs>
  <sodipodi:namedview
     id="base"
     pagecolor="#ffffff"
     bordercolor="#666666"
     borderopacity="1.0"
     inkscape:pageopacity="0.0"
     inkscape:pageshadow="2"
     inkscape:zoom="3.959798"
     inkscape:cx="95.290997"
     inkscape:cy="108.13891"
     inkscape:document-units="mm"
     inkscape:current-layer="layer1"
     showgrid="false"
     units="px"
     inkscape:window-width="1366"
     inkscape:window-height="745"
     inkscape:window-x="-8"
     inkscape:window-y="-8"
     inkscape:window-maximized="1"
     inkscape:snap-global="true">
    <inkscape:grid
       type="xygrid"
       id="grid4293" />
  </sodipodi:namedview>
  <metadata
     id="metadata5">
    <rdf:RDF>
      <cc:Work
         rdf:about="">
        <dc:format>image/svg+xml</dc:format>
        <dc:type
           rdf:resource="http://purl.org/dc/dcmitype/StillImage" />
        <dc:title></dc:title>
      </cc:Work>
    </rdf:RDF>
  </metadata>
  <g
     inkscape:label="Capa 1"
     inkscape:groupmode="layer"
     id="layer1"
     transform="translate(0,-244.08332)">
    <rect
       style="fill:#ecf0f1;fill-opacity:1;fill-rule:evenodd;stroke:none;stroke-width:2.16031361;stroke-linejoin:miter;stroke-miterlimit:4;stroke-dasharray:none;stroke-dashoffset:0;stroke-opacity:1"
       id="rect815"
       width="52.916668"
       height="52.916668"
       x="2.5687237e-008"
       y="244.08334" />
    <g
       id="g1641"
       transform="translate(1.403165,5.2117558)">
      <circle
         r="7.9375"
         cy="258.63541"
         cx="17.4625"
         id="path1432"
         style="opacity:0.98999999;vector-effect:none;fill:#2c3e50;fill-opacity:1;fill-rule:evenodd;stroke:#000000;stroke-width:0.39687499;stroke-linecap:butt;stroke-linejoin:miter;stroke-miterlimit:4;stroke-dasharray:none;stroke-dashoffset:0;stroke-opacity:1" />
      <path
         sodipodi:nodetypes="ccccccccccccccc"
         inkscape:connector-curvature="0"
         id="path1441"
         d="m 15.986058,260.9186 c -0.386918,0.25287 -0.489146,0.4583 -0.61806,0.66817 -1.184395,0.0505 -2.272912,-0.65011 -3.19053,-2.6894 0.248077,-0.49607 0.506493,-0.99387 0.233861,-1.40316 -0.17818,-0.007 -0.35636,-0.001 -0.53454,0.16704 -0.214179,-0.79152 -0.499223,-1.27124 -0.935443,-1.08578 -1.7671073,0.48359 -0.498009,2.97249 0,2.90656 -0.192315,3.02958 1.811028,4.43813 3.741773,5.89663 l 0.200452,0.58466 c 0.128881,0.11748 3.766877,0.90665 5.733808,-0.25959 1.615259,-0.97926 2.406421,-1.19529 3.704148,-3.44882 -0.562217,-0.81916 -1.243326,-1.16276 -1.887591,-1.65373 l -0.100226,-0.43432 c -1.290489,2.03393 -4.67677,2.5581 -6.347652,0.7517 z"
         style="fill:#7f8c8d;fill-opacity:1;stroke:none;stroke-width:0.079375;stroke-linecap:butt;stroke-linejoin:miter;stroke-miterlimit:4;stroke-dasharray:none;stroke-opacity:1" />
      <path
         sodipodi:nodetypes="csssc"
         inkscape:connector-curvature="0"
         id="path1434"
         d="m 22.707891,258.22919 c 0.320228,2.22614 -1.738891,3.7776 -3.999025,3.78962 -2.175949,0.0116 -3.939961,-1.69667 -3.939965,-3.78962 -2e-6,-2.09295 1.76727,-3.90923 3.939965,-3.78963 2.371821,0.13056 4.135642,2.35264 3.999025,3.78963 z"
         style="opacity:0.98999999;vector-effect:none;fill:#bdc3c7;fill-opacity:1;fill-rule:evenodd;stroke:none;stroke-width:0.13681178;stroke-linecap:butt;stroke-linejoin:miter;stroke-miterlimit:4;stroke-dasharray:none;stroke-dashoffset:0;stroke-opacity:1" />
      <ellipse
         ry="2.6708989"
         rx="2.9214642"
         cy="258.37955"
         cx="18.792389"
         id="path1436"
         style="opacity:0.98999999;vector-effect:none;fill:#34495e;fill-opacity:1;fill-rule:evenodd;stroke:none;stroke-width:0.13588394;stroke-linecap:butt;stroke-linejoin:miter;stroke-miterlimit:4;stroke-dasharray:none;stroke-dashoffset:0;stroke-opacity:1" />
      <path
         sodipodi:nodetypes="cccc"
         inkscape:connector-curvature="0"
         id="path1438"
         d="m 17.572971,256.17457 c 0.318763,0.004 0.666534,-0.0945 0.902035,0.20045 -1.593118,1.1461 -1.709761,2.04894 -1.770661,3.0736 -0.489682,-0.47861 -0.638333,-2.12158 0.868626,-3.27405 z"
         style="fill:#ecf0f1;fill-opacity:1;stroke:none;stroke-width:0.13229167;stroke-linecap:butt;stroke-linejoin:miter;stroke-miterlimit:4;stroke-dasharray:none;stroke-opacity:1" />
    </g>
    <g
       id="g1655"
       transform="translate(-1.0022607,3.0067822)">
      <circle
         style="opacity:0.98999999;vector-effect:none;fill:#3498db;fill-opacity:1;fill-rule:evenodd;stroke:#000000;stroke-width:0.39687499;stroke-linecap:butt;stroke-linejoin:miter;stroke-miterlimit:4;stroke-dasharray:none;stroke-dashoffset:0;stroke-opacity:1"
         id="circle1443"
         cx="36.455803"
         cy="274.13242"
         r="7.9375" />
      <path
         sodipodi:nodetypes="cccscsccccc"
         inkscape:connector-curvature="0"
         id="path1617"
         d="m 34.608444,278.47915 -1.086681,1.11031 -2.397788,0.15355 c -0.05941,0.099 1.587859,1.29582 2.551341,1.64183 0.866617,0.31122 1.809523,0.54131 2.598587,0.49609 1.051296,0.005 2.086753,-0.16078 3.118301,-0.57877 0.624077,-0.25288 1.770384,-0.90704 1.73633,-0.99218 l -0.73233,-0.57878 -0.283482,-0.0236 -1.299292,-1.18118 z"
         style="fill:#2c3e50;fill-opacity:1;stroke:none;stroke-width:0.26458332px;stroke-linecap:butt;stroke-linejoin:miter;stroke-opacity:1" />
      <path
         sodipodi:nodetypes="ccsccc"
         inkscape:connector-curvature="0"
         id="path1465"
         d="m 33.425394,273.32993 -0.01669,2.73951 c 0,0 0.400366,3.22394 3.290755,3.22394 3.037821,0 3.390981,-3.14042 3.390981,-3.14042 l -0.06681,-2.78962 z"
         style="fill:#f8c291;fill-opacity:1;stroke:none;stroke-width:0.13229167;stroke-linecap:butt;stroke-linejoin:miter;stroke-miterlimit:4;stroke-dasharray:none;stroke-opacity:1" />
      <path
         sodipodi:nodetypes="cccccccccc"
         inkscape:connector-curvature="0"
         id="path1456"
         d="m 36.758184,267.94307 -4.819198,2.4096 0.614212,2.07886 0.803201,0.42523 -0.141743,-1.6064 6.850819,-0.0945 -10e-7,1.6064 0.992189,-0.51971 0.566965,-1.65365 z"
         style="fill:#2c3e50;fill-opacity:1;stroke:none;stroke-width:0.13229167;stroke-linecap:butt;stroke-linejoin:miter;stroke-miterlimit:4;stroke-dasharray:none;stroke-opacity:1" />
      <path
         transform="matrix(-1,0,0,1,73.53999,0)"
         style="fill:none;stroke:#34495e;stroke-width:0.5291667;stroke-linecap:butt;stroke-linejoin:miter;stroke-miterlimit:4;stroke-dasharray:none;stroke-opacity:1;filter:url(#filter1611)"
         d="m 38.222841,273.76627 0.897693,0.35435"
         id="path1615"
         inkscape:connector-curvature="0"
         sodipodi:nodetypes="cc" />
      <path
         sodipodi:nodetypes="cc"
         inkscape:connector-curvature="0"
         id="path1473"
         d="m 38.222841,273.76627 0.897693,0.35435"
         style="fill:none;stroke:#34495e;stroke-width:0.5291667;stroke-linecap:butt;stroke-linejoin:miter;stroke-miterlimit:4;stroke-dasharray:none;stroke-opacity:1;filter:url(#filter1611)" />
      <path
         sodipodi:nodetypes="cscsc"
         inkscape:connector-curvature="0"
         id="path1460"
         d="m 40.183591,273.04575 c -1.4e-5,0.50883 -1.544195,0.92131 -3.449033,0.92131 -1.904838,0 -3.449018,-0.41248 -3.449032,-0.92131 -6e-6,-0.50883 1.54418,-0.51972 3.449032,-0.51972 1.904853,0 3.449039,0.0109 3.449033,0.51972 z"
         style="opacity:0.98999999;vector-effect:none;fill:#7f8c8d;fill-opacity:1;fill-rule:evenodd;stroke:none;stroke-width:0.13229166;stroke-linecap:butt;stroke-linejoin:miter;stroke-miterlimit:4;stroke-dasharray:none;stroke-dashoffset:0;stroke-opacity:1" />
      <path
         sodipodi:nodetypes="ccsccc"
         inkscape:connector-curvature="0"
         id="path1463"
         d="m 33.214656,271.25036 0.141743,1.6064 c 0,0 1.356346,-0.33664 3.395879,-0.33664 1.859039,0 3.313195,0.24214 3.313195,0.24214 l 2e-6,-1.6064 z"
         style="fill:#1e272e;fill-opacity:1;stroke:none;stroke-width:0.13229167;stroke-linecap:butt;stroke-linejoin:miter;stroke-miterlimit:4;stroke-dasharray:none;stroke-opacity:1" />
      <path
         inkscape:transform-center-y="-0.14535794"
         inkscape:transform-center-x="-0.0013442426"
         d="m 37.657267,272.87321 -0.907817,-0.64994 -0.897385,0.64482 0.337601,-1.06423 -0.890574,-0.6542 1.116466,-0.008 0.346979,-1.04915 0.352414,1.05942 1.105019,0.006 -0.898663,0.66254 z"
         inkscape:randomized="0"
         inkscape:rounded="0"
         inkscape:flatsided="false"
         sodipodi:arg2="1.5854803"
         sodipodi:arg1="0.94531129"
         sodipodi:r2="0.59500313"
         sodipodi:r1="1.5356025"
         sodipodi:cy="271.62833"
         sodipodi:cx="36.758186"
         sodipodi:sides="5"
         id="path1458"
         style="opacity:0.98999999;vector-effect:none;fill:#f1c40f;fill-opacity:1;fill-rule:evenodd;stroke:none;stroke-width:0.09682407;stroke-linecap:butt;stroke-linejoin:miter;stroke-miterlimit:4;stroke-dasharray:none;stroke-dashoffset:0;stroke-opacity:1"
         sodipodi:type="star" />
      <circle
         r="0.49609375"
         cy="274.77026"
         cx="35.269905"
         id="path1467"
         style="opacity:0.98999999;vector-effect:none;fill:#2c3e50;fill-opacity:1;fill-rule:evenodd;stroke:none;stroke-width:0.13229166;stroke-linecap:butt;stroke-linejoin:miter;stroke-miterlimit:4;stroke-dasharray:none;stroke-dashoffset:0;stroke-opacity:1" />
      <circle
         style="opacity:0.98999999;vector-effect:none;fill:#2c3e50;fill-opacity:1;fill-rule:evenodd;stroke:none;stroke-width:0.13229166;stroke-linecap:butt;stroke-linejoin:miter;stroke-miterlimit:4;stroke-dasharray:none;stroke-dashoffset:0;stroke-opacity:1"
         id="circle1469"
         cx="38.199219"
         cy="274.77026"
         r="0.49609375" />
      <path
         d="m 37.632255,276.66016 a 0.8976934,0.8504464 0 0 1 -0.456467,0.74063 0.8976934,0.8504464 0 0 1 -0.905185,-0.0126 0.8976934,0.8504464 0 0 1 -0.433348,-0.75299 l 0.897307,0.0249 z"
         sodipodi:end="3.1709192"
         sodipodi:start="0"
         sodipodi:ry="0.8504464"
         sodipodi:rx="0.8976934"
         sodipodi:cy="276.66016"
         sodipodi:cx="36.734562"
         sodipodi:type="arc"
         id="path1471"
         style="opacity:0.98999999;vector-effect:none;fill:#ecf0f1;fill-opacity:1;fill-rule:evenodd;stroke:none;stroke-width:0.13498262;stroke-linecap:butt;stroke-linejoin:miter;stroke-miterlimit:4;stroke-dasharray:none;stroke-dashoffset:0;stroke-opacity:1" />
    </g>
  </g>
</svg>
