<?xml version="1.0" encoding="UTF-8" standalone="no"?>
<!-- Created with Inkscape (http://www.inkscape.org/) -->

<svg
   xmlns:dc="http://purl.org/dc/elements/1.1/"
   xmlns:cc="http://creativecommons.org/ns#"
   xmlns:rdf="http://www.w3.org/1999/02/22-rdf-syntax-ns#"
   xmlns:svg="http://www.w3.org/2000/svg"
   xmlns="http://www.w3.org/2000/svg"
   xmlns:sodipodi="http://sodipodi.sourceforge.net/DTD/sodipodi-0.dtd"
   xmlns:inkscape="http://www.inkscape.org/namespaces/inkscape"
   width="200"
   height="200"
   viewBox="0 0 52.916665 52.916668"
   version="1.1"
   id="svg8"
   inkscape:version="0.92.3 (2405546, 2018-03-11)"
   sodipodi:docname="icono.svg">
  <defs
     id="defs2" />
  <sodipodi:namedview
     id="base"
     pagecolor="#ffffff"
     bordercolor="#666666"
     borderopacity="1.0"
     inkscape:pageopacity="0.0"
     inkscape:pageshadow="2"
     inkscape:zoom="1.979899"
     inkscape:cx="16.115793"
     inkscape:cy="68.697438"
     inkscape:document-units="mm"
     inkscape:current-layer="layer1"
     showgrid="true"
     units="px"
     inkscape:window-width="1366"
     inkscape:window-height="745"
     inkscape:window-x="-8"
     inkscape:window-y="-8"
     inkscape:window-maximized="1"
     inkscape:snap-global="false">
    <inkscape:grid
       type="xygrid"
       id="grid4293" />
  </sodipodi:namedview>
  <metadata
     id="metadata5">
    <rdf:RDF>
      <cc:Work
         rdf:about="">
        <dc:format>image/svg+xml</dc:format>
        <dc:type
           rdf:resource="http://purl.org/dc/dcmitype/StillImage" />
        <dc:title></dc:title>
      </cc:Work>
    </rdf:RDF>
  </metadata>
  <g
     inkscape:label="Capa 1"
     inkscape:groupmode="layer"
     id="layer1"
     transform="translate(0,-244.08332)">
    <rect
       style="fill:#ecf0f1;fill-opacity:1;fill-rule:evenodd;stroke:none;stroke-width:2.16031361;stroke-linejoin:miter;stroke-miterlimit:4;stroke-dasharray:none;stroke-dashoffset:0;stroke-opacity:1"
       id="rect815"
       width="52.916668"
       height="52.916668"
       x="2.5687237e-008"
       y="244.11676" />
    <g
       id="g2697"
       transform="matrix(0.82279191,0.2205021,-0.2205021,0.82279191,56.494083,36.488602)">
      <path
         sodipodi:nodetypes="csssssssssssc"
         inkscape:connector-curvature="0"
         id="path2667"
         d="m 26.459682,270.87439 c 0,0 -3.044839,0.1735 -4.07586,1.1359 -0.682319,0.6369 -0.905024,1.70639 -0.935443,2.63928 -0.0347,1.0641 1.220521,2.06877 0.868626,3.0736 -0.650072,1.85626 -2.494295,3.18455 -2.405426,5.04471 0.06134,1.28404 0.331994,2.76204 1.269531,3.64155 1.33208,1.24963 3.452243,1.49323 5.278572,1.46998 1.711873,-0.0218 3.680695,-0.31295 4.911077,-1.50339 0.913679,-0.88402 1.121138,-2.34201 1.236123,-3.60814 0.167575,-1.84521 -1.538166,-3.16438 -2.33861,-5.17834 -0.378609,-0.9526 0.937637,-1.91551 0.902036,-2.93997 -0.03232,-0.93009 -0.324194,-1.96842 -1.00226,-2.60587 -0.944337,-0.88778 -3.708366,-1.16931 -3.708366,-1.16931 z"
         style="fill:#e67e22;fill-opacity:1;stroke:none;stroke-width:0.26458332px;stroke-linecap:butt;stroke-linejoin:miter;stroke-opacity:1" />
      <path
         inkscape:connector-curvature="0"
         id="path2669"
         d="m 25.357196,275.5182 0.300678,-15.66868 -0.317382,-0.21715 -0.01671,-4.19279 1.236123,-0.45102 1.186008,0.41761 v 4.2596 l -0.367495,0.20046 0.250565,15.98605 z"
         style="fill:#d35400;fill-opacity:1;stroke:none;stroke-width:0.26458332px;stroke-linecap:butt;stroke-linejoin:miter;stroke-opacity:1" />
      <rect
         ry="0.03340577"
         y="255.9407"
         x="25.056517"
         height="0.73499119"
         width="2.9900777"
         id="rect2671"
         style="opacity:0.98999999;vector-effect:none;fill:#d35400;fill-opacity:1;fill-rule:evenodd;stroke:none;stroke-width:0.13229166;stroke-linecap:butt;stroke-linejoin:miter;stroke-miterlimit:4;stroke-dasharray:none;stroke-dashoffset:0;stroke-opacity:1" />
      <rect
         style="opacity:0.98999999;vector-effect:none;fill:#d35400;fill-opacity:1;fill-rule:evenodd;stroke:none;stroke-width:0.13229166;stroke-linecap:butt;stroke-linejoin:miter;stroke-miterlimit:4;stroke-dasharray:none;stroke-dashoffset:0;stroke-opacity:1"
         id="rect2673"
         width="2.9900777"
         height="0.73499119"
         x="25.056517"
         y="256.99307"
         ry="0.03340577" />
      <rect
         ry="0.03340577"
         y="258.11227"
         x="25.056517"
         height="0.73499119"
         width="2.9900777"
         id="rect2675"
         style="opacity:0.98999999;vector-effect:none;fill:#d35400;fill-opacity:1;fill-rule:evenodd;stroke:none;stroke-width:0.13229166;stroke-linecap:butt;stroke-linejoin:miter;stroke-miterlimit:4;stroke-dasharray:none;stroke-dashoffset:0;stroke-opacity:1" />
      <circle
         r="2.1882694"
         cy="276.68753"
         cx="26.459682"
         id="path2677"
         style="opacity:0.98999999;vector-effect:none;fill:#261b17;fill-opacity:1;fill-rule:evenodd;stroke:none;stroke-width:0.13229166;stroke-linecap:butt;stroke-linejoin:miter;stroke-miterlimit:4;stroke-dasharray:none;stroke-dashoffset:0;stroke-opacity:1" />
      <circle
         style="opacity:0.98999999;vector-effect:none;fill:#f39c12;fill-opacity:1;fill-rule:evenodd;stroke:none;stroke-width:0.11512404;stroke-linecap:butt;stroke-linejoin:miter;stroke-miterlimit:4;stroke-dasharray:none;stroke-dashoffset:0;stroke-opacity:1"
         id="circle2679"
         cx="26.459682"
         cy="276.68753"
         r="1.9042956" />
      <rect
         ry="0.033405762"
         y="282.31689"
         x="23.152222"
         height="1.0022607"
         width="6.481286"
         id="rect2681"
         style="opacity:0.98999999;vector-effect:none;fill:#271c17;fill-opacity:1;fill-rule:evenodd;stroke:none;stroke-width:0.13229166;stroke-linecap:butt;stroke-linejoin:miter;stroke-miterlimit:4;stroke-dasharray:none;stroke-dashoffset:0;stroke-opacity:1" />
      <path
         inkscape:connector-curvature="0"
         id="path2683"
         d="m 25.926804,282.31797 -0.01001,-23.35378"
         style="fill:none;stroke:#ecf0f1;stroke-width:0.21166667;stroke-linecap:butt;stroke-linejoin:miter;stroke-miterlimit:4;stroke-dasharray:none;stroke-opacity:1" />
      <path
         style="fill:none;stroke:#ecf0f1;stroke-width:0.21166667;stroke-linecap:butt;stroke-linejoin:miter;stroke-miterlimit:4;stroke-dasharray:none;stroke-opacity:1"
         d="m 27.096108,282.31797 -0.01001,-23.35378"
         id="path2685"
         inkscape:connector-curvature="0" />
    </g>
    <g
       id="g2754"
       transform="translate(-6.5200892,-10.016369)">
      <rect
         ry="0.034870926"
         y="267.36649"
         x="34.728333"
         height="7.9512682"
         width="10.056016"
         id="rect2714"
         style="opacity:0.98999999;vector-effect:none;fill:#c0392b;fill-opacity:1;fill-rule:evenodd;stroke:none;stroke-width:0.21625867;stroke-linecap:butt;stroke-linejoin:miter;stroke-miterlimit:4;stroke-dasharray:none;stroke-dashoffset:0;stroke-opacity:1" />
      <rect
         ry="0.034871027"
         y="275.18411"
         x="34.12698"
         height="1.6871388"
         width="11.10839"
         id="rect2716"
         style="opacity:0.98999999;vector-effect:none;fill:#e67e22;fill-opacity:1;fill-rule:evenodd;stroke:none;stroke-width:0.21166667;stroke-linecap:butt;stroke-linejoin:miter;stroke-miterlimit:4;stroke-dasharray:none;stroke-dashoffset:0;stroke-opacity:1" />
      <rect
         style="opacity:0.98999999;vector-effect:none;fill:#e67e22;fill-opacity:1;fill-rule:evenodd;stroke:none;stroke-width:0.21166667;stroke-linecap:butt;stroke-linejoin:miter;stroke-miterlimit:4;stroke-dasharray:none;stroke-dashoffset:0;stroke-opacity:1"
         id="rect2718"
         width="11.10839"
         height="1.6871388"
         x="34.12698"
         y="265.9299"
         ry="0.034871027" />
      <path
         sodipodi:nodetypes="sccsssccs"
         inkscape:connector-curvature="0"
         id="path2710"
         d="m 44.459448,262.73408 c -0.02884,-0.0825 -0.212612,-0.15355 -0.212612,-0.15355 l -7.382345,1.42922 c 0,0 -0.312425,-0.24517 -0.472472,-0.18899 -0.22625,0.0794 -0.417916,0.39482 -0.354351,0.62603 0.06732,0.24486 0.411799,0.42442 0.661458,0.37797 0.134811,-0.0251 0.259858,-0.31891 0.259858,-0.31891 l 7.417781,-1.47647 c 0,0 0.116401,-0.1988 0.08268,-0.2953 z"
         style="fill:#f39c12;fill-opacity:1;stroke:none;stroke-width:0.26458332px;stroke-linecap:butt;stroke-linejoin:miter;stroke-opacity:1" />
      <path
         style="fill:#f39c12;fill-opacity:1;stroke:none;stroke-width:0.26458332px;stroke-linecap:butt;stroke-linejoin:miter;stroke-opacity:1"
         d="m 44.499522,264.48471 c 0.0062,-0.0872 -0.134298,-0.22526 -0.134298,-0.22526 l -7.343899,-1.61519 c 0,0 -0.1896,-0.34896 -0.358803,-0.36085 -0.239187,-0.0168 -0.540212,0.19675 -0.573537,0.43421 -0.03529,0.25148 0.209751,0.55291 0.457362,0.60927 0.133713,0.0304 0.365011,-0.18973 0.365011,-0.18973 l 7.395166,1.58586 c 0,0 0.185687,-0.13635 0.192995,-0.23831 z"
         id="path2712"
         inkscape:connector-curvature="0"
         sodipodi:nodetypes="sccsssccs" />
      <circle
         r="0.5428912"
         cy="266.79022"
         cx="35.421562"
         id="path2720"
         style="opacity:0.98999999;vector-effect:none;fill:#e74c3c;fill-opacity:1;fill-rule:evenodd;stroke:none;stroke-width:0.25015152;stroke-linecap:butt;stroke-linejoin:miter;stroke-miterlimit:4;stroke-dasharray:none;stroke-dashoffset:0;stroke-opacity:1" />
      <circle
         style="opacity:0.98999999;vector-effect:none;fill:#e74c3c;fill-opacity:1;fill-rule:evenodd;stroke:none;stroke-width:0.25015152;stroke-linecap:butt;stroke-linejoin:miter;stroke-miterlimit:4;stroke-dasharray:none;stroke-dashoffset:0;stroke-opacity:1"
         id="circle2722"
         cx="39.7981"
         cy="266.79022"
         r="0.5428912" />
      <circle
         r="0.5428912"
         cy="266.79022"
         cx="44.074413"
         id="circle2724"
         style="opacity:0.98999999;vector-effect:none;fill:#e74c3c;fill-opacity:1;fill-rule:evenodd;stroke:none;stroke-width:0.25015152;stroke-linecap:butt;stroke-linejoin:miter;stroke-miterlimit:4;stroke-dasharray:none;stroke-dashoffset:0;stroke-opacity:1" />
      <circle
         style="opacity:0.98999999;vector-effect:none;fill:#e74c3c;fill-opacity:1;fill-rule:evenodd;stroke:none;stroke-width:0.25015152;stroke-linecap:butt;stroke-linejoin:miter;stroke-miterlimit:4;stroke-dasharray:none;stroke-dashoffset:0;stroke-opacity:1"
         id="circle2726"
         cx="41.93626"
         cy="275.99432"
         r="0.5428912" />
      <circle
         r="0.5428912"
         cy="275.99432"
         cx="37.626537"
         id="circle2728"
         style="opacity:0.98999999;vector-effect:none;fill:#e74c3c;fill-opacity:1;fill-rule:evenodd;stroke:none;stroke-width:0.25015152;stroke-linecap:butt;stroke-linejoin:miter;stroke-miterlimit:4;stroke-dasharray:none;stroke-dashoffset:0;stroke-opacity:1" />
      <path
         inkscape:connector-curvature="0"
         id="path2730"
         d="m 35.379802,266.81523 2.22168,8.97024 2.221677,-8.78649 2.121451,8.75308 2.238383,-8.98694"
         style="fill:none;stroke:#f1c40f;stroke-width:0.39687499;stroke-linecap:butt;stroke-linejoin:miter;stroke-miterlimit:4;stroke-dasharray:none;stroke-opacity:1" />
    </g>
    <g
       id="g2790"
       transform="translate(0.56794777,3.0735996)">
      <path
         inkscape:connector-curvature="0"
         id="path2761"
         d="m 30.836221,277.58954 0.718286,-0.68488 4.276312,4.30972 -0.718285,0.68488 z"
         style="fill:#34495e;fill-opacity:1;stroke:none;stroke-width:0.26458332px;stroke-linecap:butt;stroke-linejoin:miter;stroke-opacity:1" />
      <path
         sodipodi:nodetypes="sssssssss"
         inkscape:connector-curvature="0"
         id="rect2763"
         d="m 30.264392,277.55723 c 0.474619,-0.33738 0.89096,-0.7247 1.209921,-1.1955 0.01063,-0.0161 0.03579,-0.0134 0.04935,3e-4 l 0.502795,0.50886 c 0.01356,0.0137 0.01076,0.0335 -2.96e-4,0.0494 -0.3299,0.47191 -0.746652,0.85697 -1.209921,1.1955 -0.0157,0.0113 -0.03579,0.0134 -0.04936,-2.9e-4 l -0.502795,-0.50886 c -0.01356,-0.0137 -0.01554,-0.0381 2.96e-4,-0.0494 z"
         style="opacity:0.98999999;vector-effect:none;fill:#7f8c8d;fill-opacity:1;fill-rule:evenodd;stroke:none;stroke-width:0.13229166;stroke-linecap:butt;stroke-linejoin:miter;stroke-miterlimit:4;stroke-dasharray:none;stroke-dashoffset:0;stroke-opacity:1" />
      <circle
         r="0.86225814"
         cy="281.75101"
         cx="35.612446"
         id="path2766"
         style="opacity:0.98999999;vector-effect:none;fill:#7f8c8d;fill-opacity:1;fill-rule:evenodd;stroke:none;stroke-width:0.13229166;stroke-linecap:butt;stroke-linejoin:miter;stroke-miterlimit:4;stroke-dasharray:none;stroke-dashoffset:0;stroke-opacity:1" />
      <circle
         style="opacity:0.98999999;vector-effect:none;fill:#f1c40f;fill-opacity:1;fill-rule:evenodd;stroke:none;stroke-width:0.41647375;stroke-linecap:butt;stroke-linejoin:miter;stroke-miterlimit:4;stroke-dasharray:none;stroke-dashoffset:0;stroke-opacity:1"
         id="circle2772"
         cx="29.090794"
         cy="275.18411"
         r="2.8397388" />
      <path
         style="opacity:0.98999999;vector-effect:none;fill:#34495e;fill-opacity:1;fill-rule:evenodd;stroke:none;stroke-width:0.13229167;stroke-linecap:butt;stroke-linejoin:miter;stroke-miterlimit:4;stroke-dasharray:none;stroke-dashoffset:0;stroke-opacity:1"
         d="m 26.591737,273.86959 c 0,0 -0.119974,-0.29048 -0.03382,-0.58647 0.08619,-0.29599 0.32556,-0.51699 0.627473,-0.57935 0.301902,-0.0623 0.559153,4e-4 0.559153,4e-4 0.01136,-0.002 -0.22254,0.53627 -0.444573,0.72565 -0.357799,0.30523 -0.708272,0.43978 -0.708272,0.43978 z"
         id="path2768"
         inkscape:connector-curvature="0"
         sodipodi:nodetypes="ccccsc" />
      <path
         style="fill:#34495e;fill-opacity:1;stroke:none;stroke-width:0.26458332px;stroke-linecap:butt;stroke-linejoin:miter;stroke-opacity:1"
         d="m 34.720179,276.97757 0.676044,0.72661 -4.361694,4.22329 -0.676044,-0.72661 z"
         id="path2774"
         inkscape:connector-curvature="0" />
      <path
         style="opacity:0.98999999;vector-effect:none;fill:#7f8c8d;fill-opacity:1;fill-rule:evenodd;stroke:none;stroke-width:0.13229166;stroke-linecap:butt;stroke-linejoin:miter;stroke-miterlimit:4;stroke-dasharray:none;stroke-dashoffset:0;stroke-opacity:1"
         d="m 34.759479,276.40618 c 0.331551,0.47871 0.71375,0.89976 1.180614,1.22445 0.01597,0.0108 0.01296,0.036 -9.03e-4,0.0493 l -0.514971,0.49654 c -0.01386,0.0134 -0.03363,0.0104 -0.04939,-9e-4 -0.46784,-0.33565 -0.847775,-0.75708 -1.180614,-1.22445 -0.01111,-0.0158 -0.01296,-0.036 8.94e-4,-0.0494 l 0.514971,-0.49653 c 0.01386,-0.0134 0.03829,-0.0151 0.04939,9e-4 z"
         id="path2776"
         inkscape:connector-curvature="0"
         sodipodi:nodetypes="sssssssss" />
      <circle
         r="2.8397388"
         cy="275.18411"
         cx="37.217281"
         id="path2756"
         style="opacity:0.98999999;vector-effect:none;fill:#f1c40f;fill-opacity:1;fill-rule:evenodd;stroke:none;stroke-width:0.41647375;stroke-linecap:butt;stroke-linejoin:miter;stroke-miterlimit:4;stroke-dasharray:none;stroke-dashoffset:0;stroke-opacity:1" />
      <path
         sodipodi:nodetypes="ccccsc"
         inkscape:connector-curvature="0"
         id="path2758"
         d="m 222.3489,162.43405 c 0,0 0.10894,-0.2948 0.37307,-0.45377 0.26414,-0.15897 0.58992,-0.15893 0.85403,9e-5 0.2641,0.15902 0.41052,0.37964 0.41052,0.37964 0.01,0.006 -0.52732,0.24299 -0.81892,0.23148 -0.46994,-0.0185 -0.8187,-0.15744 -0.8187,-0.15744 z"
         style="opacity:0.98999999;vector-effect:none;fill:#34495e;fill-opacity:1;fill-rule:evenodd;stroke:none;stroke-width:0.13229167;stroke-linecap:butt;stroke-linejoin:miter;stroke-miterlimit:4;stroke-dasharray:none;stroke-dashoffset:0;stroke-opacity:1"
         transform="rotate(45.813144)" />
      <circle
         transform="rotate(90.700703)"
         style="opacity:0.98999999;vector-effect:none;fill:#7f8c8d;fill-opacity:1;fill-rule:evenodd;stroke:none;stroke-width:0.13229166;stroke-linecap:butt;stroke-linejoin:miter;stroke-miterlimit:4;stroke-dasharray:none;stroke-dashoffset:0;stroke-opacity:1"
         id="circle2778"
         cx="281.30814"
         cy="-33.94339"
         r="0.86225814" />
    </g>
  </g>
</svg>
