<?xml version="1.0" encoding="UTF-8" standalone="no"?>
<!-- Created with Inkscape (http://www.inkscape.org/) -->

<svg
   xmlns:dc="http://purl.org/dc/elements/1.1/"
   xmlns:cc="http://creativecommons.org/ns#"
   xmlns:rdf="http://www.w3.org/1999/02/22-rdf-syntax-ns#"
   xmlns:svg="http://www.w3.org/2000/svg"
   xmlns="http://www.w3.org/2000/svg"
   xmlns:sodipodi="http://sodipodi.sourceforge.net/DTD/sodipodi-0.dtd"
   xmlns:inkscape="http://www.inkscape.org/namespaces/inkscape"
   width="200"
   height="200"
   viewBox="0 0 52.916665 52.916668"
   version="1.1"
   id="svg8"
   inkscape:version="0.92.3 (2405546, 2018-03-11)"
   sodipodi:docname="icono.svg">
  <defs
     id="defs2" />
  <sodipodi:namedview
     id="base"
     pagecolor="#ffffff"
     bordercolor="#666666"
     borderopacity="1.0"
     inkscape:pageopacity="0.0"
     inkscape:pageshadow="2"
     inkscape:zoom="1.979899"
     inkscape:cx="-12.974556"
     inkscape:cy="117.17257"
     inkscape:document-units="mm"
     inkscape:current-layer="layer1"
     showgrid="true"
     units="px"
     inkscape:window-width="1366"
     inkscape:window-height="745"
     inkscape:window-x="-8"
     inkscape:window-y="-8"
     inkscape:window-maximized="1"
     inkscape:snap-global="false">
    <inkscape:grid
       type="xygrid"
       id="grid4293" />
  </sodipodi:namedview>
  <metadata
     id="metadata5">
    <rdf:RDF>
      <cc:Work
         rdf:about="">
        <dc:format>image/svg+xml</dc:format>
        <dc:type
           rdf:resource="http://purl.org/dc/dcmitype/StillImage" />
        <dc:title></dc:title>
      </cc:Work>
    </rdf:RDF>
  </metadata>
  <g
     inkscape:label="Capa 1"
     inkscape:groupmode="layer"
     id="layer1"
     transform="translate(0,-244.08332)">
    <rect
       style="fill:#ecf0f1;fill-opacity:1;fill-rule:evenodd;stroke:none;stroke-width:2.16031361;stroke-linejoin:miter;stroke-miterlimit:4;stroke-dasharray:none;stroke-dashoffset:0;stroke-opacity:1"
       id="rect815"
       width="52.916668"
       height="52.916668"
       x="2.5687237e-008"
       y="244.08334" />
    <path
       style="fill:#d35400;fill-opacity:1;stroke:#000000;stroke-width:0.26458332px;stroke-linecap:butt;stroke-linejoin:miter;stroke-opacity:1"
       d="m 30.852305,261.32848 c 0,0 -3.168059,-2.58297 -5.05543,-2.6222 -2.743578,-0.057 -4.826007,3.44205 -7.606771,3.4254 -1.233036,-0.007 -3.354539,-1.55915 -3.354539,-1.55915 -1.342647,1.14622 -1.297606,2.33449 -0.566964,3.54353 -1.842365,0 -2.851474,1.94264 -3.260045,3.40178 -0.679455,2.42656 1.349507,5.40222 0.04725,7.55953 -0.495072,0.82013 -1.6064433,1.48066 -2.5513389,1.32291 -0.9229339,-0.15409 -1.937128,-2.03162 -1.937128,-2.03162 0,0 0.4783603,4.46126 2.1261162,5.57515 3.4310507,2.31941 9.2633847,-3.65348 9.1659227,-3.9215 -1.645179,1.60765 -0.01288,3.70085 -4.960938,4.81919 0,0 2.456275,0.60196 4.488467,0.51972 2.032192,-0.0822 9.507487,-2.15972 12.284227,-4.96094 2.680932,-2.70456 5.064852,-8.27165 3.023809,-10.39434 z"
       id="path5635"
       inkscape:connector-curvature="0"
       sodipodi:nodetypes="cssccssscscczscc" />
    <path
       style="fill:#f39c12;fill-opacity:1;stroke:#000000;stroke-width:0.26458333;stroke-linecap:butt;stroke-linejoin:miter;stroke-opacity:1;stroke-miterlimit:4;stroke-dasharray:none"
       d="m 51.593749,263.92707 c -0.645687,1.35874 -2.954491,2.75278 -7.701265,2.29148 -3.741057,-0.36357 -7.25413,-4.08016 -9.58176,-4.35101 -0.198401,-0.15632 -2.253441,-0.88341 -4.109267,-0.14713 l 1.937702,4.17609 c 0.666908,-0.50018 6.780262,4.3074 10.089425,4.84425 3.24331,0.52617 9.502107,-0.22347 9.788747,-1.36975 z"
       id="path5633"
       inkscape:connector-curvature="0"
       sodipodi:nodetypes="cscccscc" />
    <path
       style="fill:none;stroke:#000000;stroke-width:0.26458332;stroke-linecap:butt;stroke-linejoin:miter;stroke-miterlimit:4;stroke-dasharray:none;stroke-opacity:1"
       d="m 14.181026,264.15068 c 1.717551,-0.18244 2.171773,0.58487 3.412758,0.87604"
       id="path5637"
       inkscape:connector-curvature="0"
       sodipodi:nodetypes="cc" />
  </g>
</svg>
