<?xml version="1.0" encoding="UTF-8" standalone="no"?>
<!-- Created with Inkscape (http://www.inkscape.org/) -->

<svg
   xmlns:dc="http://purl.org/dc/elements/1.1/"
   xmlns:cc="http://creativecommons.org/ns#"
   xmlns:rdf="http://www.w3.org/1999/02/22-rdf-syntax-ns#"
   xmlns:svg="http://www.w3.org/2000/svg"
   xmlns="http://www.w3.org/2000/svg"
   xmlns:sodipodi="http://sodipodi.sourceforge.net/DTD/sodipodi-0.dtd"
   xmlns:inkscape="http://www.inkscape.org/namespaces/inkscape"
   width="200"
   height="200"
   viewBox="0 0 52.916665 52.916668"
   version="1.1"
   id="svg8"
   inkscape:version="0.92.3 (2405546, 2018-03-11)"
   sodipodi:docname="icono.svg">
  <defs
     id="defs2" />
  <sodipodi:namedview
     id="base"
     pagecolor="#ffffff"
     bordercolor="#666666"
     borderopacity="1.0"
     inkscape:pageopacity="0.0"
     inkscape:pageshadow="2"
     inkscape:zoom="1.4"
     inkscape:cx="40.079418"
     inkscape:cy="73.786059"
     inkscape:document-units="mm"
     inkscape:current-layer="layer1"
     showgrid="true"
     units="px"
     inkscape:window-width="1366"
     inkscape:window-height="745"
     inkscape:window-x="-8"
     inkscape:window-y="-8"
     inkscape:window-maximized="1"
     inkscape:snap-global="true">
    <inkscape:grid
       type="xygrid"
       id="grid4293" />
  </sodipodi:namedview>
  <metadata
     id="metadata5">
    <rdf:RDF>
      <cc:Work
         rdf:about="">
        <dc:format>image/svg+xml</dc:format>
        <dc:type
           rdf:resource="http://purl.org/dc/dcmitype/StillImage" />
        <dc:title></dc:title>
      </cc:Work>
    </rdf:RDF>
  </metadata>
  <g
     inkscape:label="Capa 1"
     inkscape:groupmode="layer"
     id="layer1"
     transform="translate(0,-244.08332)">
    <rect
       style="fill:#ecf0f1;fill-opacity:1;fill-rule:evenodd;stroke:none;stroke-width:2.16031361;stroke-linejoin:miter;stroke-miterlimit:4;stroke-dasharray:none;stroke-dashoffset:0;stroke-opacity:1"
       id="rect815"
       width="52.916668"
       height="52.916668"
       x="2.5687237e-008"
       y="244.08334" />
    <rect
       style="opacity:0.98999999;vector-effect:none;fill:#3498db;fill-opacity:1;fill-rule:evenodd;stroke:none;stroke-width:0.1045857;stroke-linecap:butt;stroke-linejoin:miter;stroke-miterlimit:4;stroke-dasharray:none;stroke-dashoffset:0;stroke-opacity:1"
       id="rect2861"
       width="13.229166"
       height="35.718723"
       x="19.314583"
       y="252.28543" />
    <path
       style="fill:#3498db;fill-opacity:1;stroke:none;stroke-width:0.22361363px;stroke-linecap:butt;stroke-linejoin:miter;stroke-opacity:1"
       d="m 17.424702,254.93124 0.94494,1.32292 7.559524,2.64583 h 0.944941 l 6.614583,-2.64583 0.94494,-1.32292 z"
       id="path2863"
       inkscape:connector-curvature="0" />
    <path
       inkscape:connector-curvature="0"
       id="path2865"
       d="m 17.424702,266.5729 0.94494,1.32292 7.559524,2.64583 h 0.944941 l 6.614583,-2.64583 0.94494,-1.32292 z"
       style="fill:#3498db;fill-opacity:1;stroke:none;stroke-width:0.22361363px;stroke-linecap:butt;stroke-linejoin:miter;stroke-opacity:1" />
    <path
       style="fill:#3498db;fill-opacity:1;stroke:none;stroke-width:0.22361363px;stroke-linecap:butt;stroke-linejoin:miter;stroke-opacity:1"
       d="m 17.424702,278.74387 0.94494,1.32292 7.559524,2.64583 h 0.944941 l 6.614583,-2.64583 0.94494,-1.32292 z"
       id="path2867"
       inkscape:connector-curvature="0" />
    <ellipse
       style="opacity:0.98999999;vector-effect:none;fill:#e74c3c;fill-opacity:1;fill-rule:evenodd;stroke:none;stroke-width:0.1068185;stroke-linecap:butt;stroke-linejoin:miter;stroke-miterlimit:4;stroke-dasharray:none;stroke-dashoffset:0;stroke-opacity:1"
       id="path2869"
       cx="25.910099"
       cy="258.89996"
       rx="4.7437687"
       ry="3.9687402" />
    <path
       style="fill:#3498db;fill-opacity:1;stroke:none;stroke-width:0.22361363px;stroke-linecap:butt;stroke-linejoin:miter;stroke-opacity:1"
       d="m 25.929166,255.19582 c -0.963654,0 -1.955096,0.24308 -2.834821,0.79375 -0.575095,0.35998 -1.511905,1.5875 -1.511905,1.5875 0,0 1.086158,-1.03341 1.700892,-1.32291 0.844404,-0.39767 1.754935,-0.52917 2.645834,-0.52917 0.890899,0 1.818842,0.0653 2.645834,0.52917 0.503037,0.28216 1.511905,1.32291 1.511905,1.32291 0,0 -0.851628,-1.23438 -1.322918,-1.5875 -0.849629,-0.63659 -1.871167,-0.79375 -2.834821,-0.79375 z"
       id="path2871"
       inkscape:connector-curvature="0"
       sodipodi:nodetypes="sscssscss" />
    <ellipse
       ry="3.9687402"
       rx="4.7437687"
       cy="270.54163"
       cx="25.910099"
       id="ellipse2873"
       style="opacity:0.98999999;vector-effect:none;fill:#f1c40f;fill-opacity:1;fill-rule:evenodd;stroke:none;stroke-width:0.1068185;stroke-linecap:butt;stroke-linejoin:miter;stroke-miterlimit:4;stroke-dasharray:none;stroke-dashoffset:0;stroke-opacity:1" />
    <path
       sodipodi:nodetypes="sscssscss"
       inkscape:connector-curvature="0"
       id="path2875"
       d="m 25.929166,266.83748 c -0.963654,0 -1.955096,0.24308 -2.834821,0.79375 -0.575095,0.35998 -1.511905,1.5875 -1.511905,1.5875 0,0 1.086158,-1.03341 1.700892,-1.32291 0.844404,-0.39767 1.754935,-0.52917 2.645834,-0.52917 0.890899,0 1.818842,0.0653 2.645834,0.52917 0.503037,0.28216 1.511905,1.32291 1.511905,1.32291 0,0 -0.851628,-1.23438 -1.322918,-1.5875 -0.849629,-0.63659 -1.871167,-0.79375 -2.834821,-0.79375 z"
       style="fill:#3498db;fill-opacity:1;stroke:none;stroke-width:0.22361363px;stroke-linecap:butt;stroke-linejoin:miter;stroke-opacity:1" />
    <ellipse
       style="opacity:0.98999999;vector-effect:none;fill:#2ecc71;fill-opacity:1;fill-rule:evenodd;stroke:none;stroke-width:0.1068185;stroke-linecap:butt;stroke-linejoin:miter;stroke-miterlimit:4;stroke-dasharray:none;stroke-dashoffset:0;stroke-opacity:1"
       id="ellipse2879"
       cx="25.910099"
       cy="282.44788"
       rx="4.7437687"
       ry="3.9687402" />
    <path
       style="fill:#3498db;fill-opacity:1;stroke:none;stroke-width:0.22361363px;stroke-linecap:butt;stroke-linejoin:miter;stroke-opacity:1"
       d="m 25.929166,278.74372 c -0.963654,0 -1.955096,0.24308 -2.834821,0.79375 -0.575095,0.35998 -1.511905,1.5875 -1.511905,1.5875 0,0 1.086158,-1.03341 1.700892,-1.32291 0.844404,-0.39767 1.754935,-0.52917 2.645834,-0.52917 0.890899,0 1.818842,0.0653 2.645834,0.52917 0.503037,0.28216 1.511905,1.32291 1.511905,1.32291 0,0 -0.851628,-1.23438 -1.322918,-1.5875 -0.849629,-0.63659 -1.871167,-0.79375 -2.834821,-0.79375 z"
       id="path2881"
       inkscape:connector-curvature="0"
       sodipodi:nodetypes="sscssscss" />
  </g>
</svg>
