<?xml version="1.0" encoding="UTF-8" standalone="no"?>
<!-- Created with Inkscape (http://www.inkscape.org/) -->

<svg
   xmlns:dc="http://purl.org/dc/elements/1.1/"
   xmlns:cc="http://creativecommons.org/ns#"
   xmlns:rdf="http://www.w3.org/1999/02/22-rdf-syntax-ns#"
   xmlns:svg="http://www.w3.org/2000/svg"
   xmlns="http://www.w3.org/2000/svg"
   xmlns:sodipodi="http://sodipodi.sourceforge.net/DTD/sodipodi-0.dtd"
   xmlns:inkscape="http://www.inkscape.org/namespaces/inkscape"
   width="200"
   height="200"
   viewBox="0 0 52.916665 52.916668"
   version="1.1"
   id="svg8"
   inkscape:version="0.92.3 (2405546, 2018-03-11)"
   sodipodi:docname="icono.svg">
  <defs
     id="defs2" />
  <sodipodi:namedview
     id="base"
     pagecolor="#ffffff"
     bordercolor="#666666"
     borderopacity="1.0"
     inkscape:pageopacity="0.0"
     inkscape:pageshadow="2"
     inkscape:zoom="1.979899"
     inkscape:cx="5.883532"
     inkscape:cy="75.346684"
     inkscape:document-units="mm"
     inkscape:current-layer="layer1"
     showgrid="true"
     units="px"
     inkscape:window-width="1366"
     inkscape:window-height="745"
     inkscape:window-x="-8"
     inkscape:window-y="-8"
     inkscape:window-maximized="1"
     inkscape:snap-global="false"
     showguides="true">
    <inkscape:grid
       type="xygrid"
       id="grid4293" />
  </sodipodi:namedview>
  <metadata
     id="metadata5">
    <rdf:RDF>
      <cc:Work
         rdf:about="">
        <dc:format>image/svg+xml</dc:format>
        <dc:type
           rdf:resource="http://purl.org/dc/dcmitype/StillImage" />
        <dc:title></dc:title>
      </cc:Work>
    </rdf:RDF>
  </metadata>
  <g
     inkscape:label="Capa 1"
     inkscape:groupmode="layer"
     id="layer1"
     transform="translate(0,-244.08332)">
    <rect
       style="fill:#ecf0f1;fill-opacity:1;fill-rule:evenodd;stroke:none;stroke-width:2.16031361;stroke-linejoin:miter;stroke-miterlimit:4;stroke-dasharray:none;stroke-dashoffset:0;stroke-opacity:1"
       id="rect815"
       width="52.916668"
       height="52.916668"
       x="2.5687237e-008"
       y="244.08334" />
    <path
       style="fill:none;stroke:#d35400;stroke-width:0.39687499;stroke-linecap:butt;stroke-linejoin:miter;stroke-miterlimit:4;stroke-dasharray:none;stroke-opacity:1"
       d="m 19.560788,251.77297 0.0167,2.02958"
       id="path1522"
       inkscape:connector-curvature="0"
       sodipodi:nodetypes="cc" />
    <path
       style="opacity:0.98999999;vector-effect:none;fill:#f39c12;fill-opacity:1;fill-rule:evenodd;stroke:none;stroke-width:0.26458332;stroke-linecap:butt;stroke-linejoin:miter;stroke-miterlimit:4;stroke-dasharray:none;stroke-dashoffset:0;stroke-opacity:1"
       id="path1552"
       sodipodi:type="arc"
       sodipodi:cx="26.694567"
       sodipodi:cy="286.2749"
       sodipodi:rx="18.379093"
       sodipodi:ry="9.0241814"
       sodipodi:start="0"
       sodipodi:end="3.1511656"
       d="m 45.07366,286.2749 a 18.379093,9.0241814 0 0 1 -9.240383,7.82953 18.379093,9.0241814 0 0 1 -18.429649,-0.0433 18.379093,9.0241814 0 0 1 -9.0873123,-7.8726 l 18.3782513,0.0864 z" />
    <path
       style="fill:#e67e22;fill-opacity:1;stroke:none;stroke-width:0.13229167;stroke-linecap:butt;stroke-linejoin:miter;stroke-miterlimit:4;stroke-dasharray:none;stroke-opacity:1"
       d="m 20.011805,253.43505 c -1.668922,0.13257 -4.142677,2.83974 -4.142677,2.83974 0,0 -0.103197,0.52196 0.164669,0.71305 0.209301,0.14931 0.643128,0.2932 0.957388,0.14948 0.181163,-0.0828 0.314517,-0.42822 0.314517,-0.42822 l 3.289916,-0.057 1.855022,14.48958 c 0,0 -0.557028,0.85088 -0.668174,1.33635 -0.183928,0.80337 -0.170402,1.65691 -0.05011,2.47224 0.136327,0.92406 0.43987,1.9438 1.252826,2.43884 0.530603,0.32311 1.804069,0.46772 1.804069,0.46772 l 1.04175,3.26426 -0.03949,5.92313 -0.69585,2.31904 1.263798,-0.0138 v -9.2542 l -0.200452,-2.27179 c 1.379742,-0.33485 2.725698,-0.85552 4.042452,-1.5368 l 1.503389,2.40542 c 1.066222,0.92291 1.986169,2.08517 2.706105,3.57473 l 0.03341,5.01131 -1.5368,2.20497 h 1.336347 l 0.902036,-1.9043 -0.06682,-5.84651 -0.567947,-1.93771 0.668173,-4.91108 c -0.0044,-0.86259 -0.24031,-2.41827 -1.069078,-2.63928 0,0 -2.077401,-0.34115 -3.006783,-0.80181 -1.548964,-0.76777 -4.695767,-2.69962 -4.610399,-2.80633 0,0 -4.956924,-14.19399 -5.211755,-14.5996 -0.249102,-0.3965 -0.802751,-0.63844 -1.269534,-0.60136 z"
       id="path1514"
       inkscape:connector-curvature="0"
       sodipodi:nodetypes="ccsscccssscccccccccccccccccsscssc" />
    <path
       style="fill:#d35400;stroke:none;stroke-width:0.13229167;stroke-linecap:butt;stroke-linejoin:miter;stroke-miterlimit:4;stroke-dasharray:none;stroke-opacity:1;fill-opacity:1"
       d="m 22.276971,276.6129 1.322917,4.51209 0.04725,5.95312 -0.685082,2.38598 1.157552,-0.0945 0.118118,-2.10249 0.02362,-6.59096 -0.212612,-2.90569 c 0,0 -0.877066,-0.19077 -1.228423,-0.44885 -0.239909,-0.17622 -0.54334,-0.7087 -0.54334,-0.7087 z"
       id="path1516"
       inkscape:connector-curvature="0"
       sodipodi:nodetypes="ccccccccsc" />
    <path
       style="fill:#d35400;stroke:none;stroke-width:0.13229167;stroke-linecap:butt;stroke-linejoin:miter;stroke-opacity:1;stroke-miterlimit:4;stroke-dasharray:none;fill-opacity:1"
       d="m 28.714768,276.97148 3.34087,4.27631 0.367496,0.85192 0.11693,5.14494 -1.620322,2.17156 1.252826,-0.0167 1.00226,-1.68714 v -5.84652 l -0.534537,-2.20498 -0.968851,-1.00226 -1.503392,-2.38872 z"
       id="path1518"
       inkscape:connector-curvature="0" />
    <path
       style="opacity:0.98999999;vector-effect:none;fill:#f39c12;fill-opacity:1;fill-rule:evenodd;stroke:none;stroke-width:0.13229166;stroke-linecap:butt;stroke-linejoin:miter;stroke-miterlimit:4;stroke-dasharray:none;stroke-dashoffset:0;stroke-opacity:1"
       id="path1520"
       sodipodi:type="arc"
       sodipodi:cx="-8.0173235"
       sodipodi:cy="255.24707"
       sodipodi:rx="1.2277693"
       sodipodi:ry="0.66817379"
       sodipodi:start="0"
       sodipodi:end="3.1277927"
       d="m -6.7895542,255.24707 a 1.2277693,0.66817379 0 0 1 -1.2192978,0.66816 1.2277693,0.66817379 0 0 1 -1.2361238,-0.65894 l 1.2276523,-0.009 z"
       transform="rotate(-6.6852793)" />
    <circle
       style="opacity:0.98999999;vector-effect:none;fill:#d35400;fill-opacity:1;fill-rule:evenodd;stroke:none;stroke-width:0.63625991;stroke-linecap:butt;stroke-linejoin:miter;stroke-miterlimit:4;stroke-dasharray:none;stroke-dashoffset:0;stroke-opacity:1"
       id="path1526"
       cx="19.54826"
       cy="251.49319"
       r="0.42178473" />
    <path
       sodipodi:nodetypes="cc"
       inkscape:connector-curvature="0"
       id="path1528"
       d="m 20.619122,251.77297 0.0167,2.02958"
       style="fill:none;stroke:#e67e22;stroke-width:0.39687499;stroke-linecap:butt;stroke-linejoin:miter;stroke-miterlimit:4;stroke-dasharray:none;stroke-opacity:1" />
    <circle
       r="0.42178473"
       cy="251.49319"
       cx="20.606594"
       id="circle1530"
       style="opacity:0.98999999;vector-effect:none;fill:#e67e22;fill-opacity:1;fill-rule:evenodd;stroke:none;stroke-width:0.63625991;stroke-linecap:butt;stroke-linejoin:miter;stroke-miterlimit:4;stroke-dasharray:none;stroke-dashoffset:0;stroke-opacity:1" />
    <path
       style="fill:none;stroke:#e67e22;stroke-width:0.26458333;stroke-linecap:butt;stroke-linejoin:miter;stroke-opacity:1;stroke-miterlimit:4;stroke-dasharray:none"
       d="m 34.939173,273.25836 1.133928,1.25204 0.174815,8.20209"
       id="path1532"
       inkscape:connector-curvature="0" />
    <path
       style="fill:#d35400;fill-opacity:1;stroke:none;stroke-width:0.26458332;stroke-linecap:butt;stroke-linejoin:miter;stroke-miterlimit:4;stroke-dasharray:none;stroke-opacity:1"
       d="m 36.377848,282.71249 h -0.264583 c 0,0 -0.258828,0.13999 -0.264583,0.26458 -0.02363,0.51145 0.01911,1.11049 0.264583,1.5875 0.114144,0.22181 0.529167,0.52917 0.529167,0.52917 0,0 0.0633,-1.78964 0,-2.11667 -0.0237,-0.12245 -0.264584,-0.26458 -0.264584,-0.26458 z"
       id="path1537"
       inkscape:connector-curvature="0"
       sodipodi:nodetypes="ccsscsc" />
    <path
       style="opacity:0.98999999;vector-effect:none;fill:#a55400;fill-opacity:1;fill-rule:evenodd;stroke:none;stroke-width:0.15248789;stroke-linecap:butt;stroke-linejoin:miter;stroke-miterlimit:4;stroke-dasharray:none;stroke-dashoffset:0;stroke-opacity:1"
       d="m 29.924162,271.42987 c 0.30178,0.48854 -0.179073,0.69261 -0.649519,0.98321 -0.470448,0.29061 -0.872214,-0.13221 -1.077671,-0.66844 -0.209113,-0.54578 0.08395,-1.05239 0.636909,-1.05544 0.67965,-0.004 0.788496,0.25213 1.090281,0.74067 z"
       id="path1539"
       inkscape:connector-curvature="0"
       sodipodi:nodetypes="sssss" />
    <path
       sodipodi:nodetypes="sssss"
       inkscape:connector-curvature="0"
       id="path1542"
       d="m 31.761833,274.07507 c -0.162272,0.4691 -0.561727,0.25857 -1.013453,0.10231 -0.451726,-0.15627 -0.388104,-0.65642 -0.141254,-1.08706 0.251249,-0.43832 0.750707,-0.51891 1.054938,-0.15023 0.373936,0.45313 0.262044,0.66587 0.09977,1.13498 z"
       style="opacity:0.98999999;vector-effect:none;fill:#a55400;fill-opacity:1;fill-rule:evenodd;stroke:none;stroke-width:0.13181204;stroke-linecap:butt;stroke-linejoin:miter;stroke-miterlimit:4;stroke-dasharray:none;stroke-dashoffset:0;stroke-opacity:1" />
    <path
       style="opacity:0.98999999;vector-effect:none;fill:#a55400;fill-opacity:1;fill-rule:evenodd;stroke:none;stroke-width:0.19129016;stroke-linecap:butt;stroke-linejoin:miter;stroke-miterlimit:4;stroke-dasharray:none;stroke-dashoffset:0;stroke-opacity:1"
       d="m 27.281955,272.034 c 0,0.72035 -0.647731,0.62113 -1.341406,0.62113 -0.693675,0 -0.843709,-0.71613 -0.709467,-1.42387 0.136636,-0.72035 0.783405,-1.06783 1.375567,-0.70654 0.727834,0.44407 0.675306,0.78892 0.675306,1.50928 z"
       id="path1544"
       inkscape:connector-curvature="0"
       sodipodi:nodetypes="sssss" />
    <path
       sodipodi:nodetypes="sssss"
       inkscape:connector-curvature="0"
       id="path1546"
       d="m 32.605047,275.78343 c 0.423612,-0.18082 0.527853,0.22498 0.701974,0.6329 0.17412,0.40792 -0.209349,0.67591 -0.659235,0.77462 -0.4579,0.10047 -0.824581,-0.19265 -0.760766,-0.63156 0.07844,-0.53947 0.294423,-0.59515 0.718027,-0.77596 z"
       style="opacity:0.98999999;vector-effect:none;fill:#a55400;fill-opacity:1;fill-rule:evenodd;stroke:none;stroke-width:0.12230834;stroke-linecap:butt;stroke-linejoin:miter;stroke-miterlimit:4;stroke-dasharray:none;stroke-dashoffset:0;stroke-opacity:1" />
    <path
       sodipodi:nodetypes="sssss"
       inkscape:connector-curvature="0"
       id="path1548"
       d="m 34.36931,274.11654 c 0,0.46059 -0.41415,0.39715 -0.857677,0.39715 -0.443526,0 -0.539456,-0.45789 -0.453623,-0.91041 0.08736,-0.46058 0.500898,-0.68275 0.879519,-0.45175 0.465367,0.28393 0.431781,0.50443 0.431781,0.96501 z"
       style="opacity:0.98999999;vector-effect:none;fill:#a55400;fill-opacity:1;fill-rule:evenodd;stroke:none;stroke-width:0.12230834;stroke-linecap:butt;stroke-linejoin:miter;stroke-miterlimit:4;stroke-dasharray:none;stroke-dashoffset:0;stroke-opacity:1" />
    <path
       style="opacity:0.98999999;vector-effect:none;fill:#a55400;fill-opacity:1;fill-rule:evenodd;stroke:none;stroke-width:0.13181204;stroke-linecap:butt;stroke-linejoin:miter;stroke-miterlimit:4;stroke-dasharray:none;stroke-dashoffset:0;stroke-opacity:1"
       d="m 28.643529,274.92552 c -0.162272,0.4691 -0.561727,0.25857 -1.013453,0.10231 -0.451726,-0.15627 -0.388104,-0.65642 -0.141254,-1.08706 0.251249,-0.43832 0.750707,-0.51891 1.054938,-0.15023 0.373936,0.45313 0.262044,0.66587 0.09977,1.13498 z"
       id="path1550"
       inkscape:connector-curvature="0"
       sodipodi:nodetypes="sssss" />
  </g>
</svg>
