<?xml version="1.0" encoding="UTF-8" standalone="no"?>
<!-- Created with Inkscape (http://www.inkscape.org/) -->

<svg
   xmlns:dc="http://purl.org/dc/elements/1.1/"
   xmlns:cc="http://creativecommons.org/ns#"
   xmlns:rdf="http://www.w3.org/1999/02/22-rdf-syntax-ns#"
   xmlns:svg="http://www.w3.org/2000/svg"
   xmlns="http://www.w3.org/2000/svg"
   xmlns:sodipodi="http://sodipodi.sourceforge.net/DTD/sodipodi-0.dtd"
   xmlns:inkscape="http://www.inkscape.org/namespaces/inkscape"
   width="200"
   height="200"
   viewBox="0 0 52.916665 52.916668"
   version="1.1"
   id="svg8"
   inkscape:version="0.92.3 (2405546, 2018-03-11)"
   sodipodi:docname="icono.svg">
  <defs
     id="defs2" />
  <sodipodi:namedview
     id="base"
     pagecolor="#ffffff"
     bordercolor="#666666"
     borderopacity="1.0"
     inkscape:pageopacity="0.0"
     inkscape:pageshadow="2"
     inkscape:zoom="1.979899"
     inkscape:cx="172.81259"
     inkscape:cy="129.56271"
     inkscape:document-units="mm"
     inkscape:current-layer="layer1"
     showgrid="true"
     units="px"
     inkscape:window-width="1366"
     inkscape:window-height="745"
     inkscape:window-x="-8"
     inkscape:window-y="-8"
     inkscape:window-maximized="1"
     inkscape:snap-global="false">
    <inkscape:grid
       type="xygrid"
       id="grid4293" />
  </sodipodi:namedview>
  <metadata
     id="metadata5">
    <rdf:RDF>
      <cc:Work
         rdf:about="">
        <dc:format>image/svg+xml</dc:format>
        <dc:type
           rdf:resource="http://purl.org/dc/dcmitype/StillImage" />
        <dc:title></dc:title>
      </cc:Work>
    </rdf:RDF>
  </metadata>
  <g
     inkscape:label="Capa 1"
     inkscape:groupmode="layer"
     id="layer1"
     transform="translate(0,-244.08332)">
    <rect
       style="fill:#ecf0f1;fill-opacity:1;fill-rule:evenodd;stroke:none;stroke-width:2.16031361;stroke-linejoin:miter;stroke-miterlimit:4;stroke-dasharray:none;stroke-dashoffset:0;stroke-opacity:1"
       id="rect815"
       width="52.916668"
       height="52.916668"
       x="2.5687237e-008"
       y="244.08334" />
    <path
       style="fill:#d35400;fill-opacity:1;stroke:none;stroke-width:0.29761985px;stroke-linecap:butt;stroke-linejoin:miter;stroke-opacity:1"
       d="m 38.477357,264.06716 c 1.82146,-0.21807 0.698293,-4.35174 1.009782,-4.358 l -1.009782,-1.80698 1.700686,-1.22236 -1.541248,-0.15944 -6.324422,1.80698 -4.039124,4.78317 c 0,0 -5.559817,1.10438 -8.343986,0.85034 -1.120116,-0.10225 -3.24193,0.98795 -3.24193,1.16923 -1.618619,2.05868 -1.100961,3.43762 -1.647539,5.1552 -1.234194,1.06432 -2.605144,1.47906 -4.039127,1.59439 -0.40344,2.17216 -1.6354505,3.31848 -3.0824905,4.19856 0.1589488,0.65516 -0.2694412,0.67781 -0.7510342,0.64316 v 0.28186 H 5.7015151 v 2.68698 l 1.3716766,-0.7704 1.4280472,-0.63886 2.9312541,-4.1714 c 1.812313,-1.29758 4.415122,-1.64658 7.221256,-1.75159 1.333557,-0.26083 2.353007,-0.83578 3.135638,-1.64754 0,0 2.867331,0.38132 4.304859,0.31888 1.326817,-0.0576 3.932832,-0.63775 3.932832,-0.63775 l 1.328661,1.11607 4.730031,0.15944 4.039123,1.43495 c 0.886392,0.55386 1.531185,0.53668 2.923053,2.2853 l 0.385314,-0.0265 0.611183,1.03636 -0.385314,0.63776 2.577603,1.70068 -0.372026,-2.55103 -5.128626,-5.12862 -6.085263,-2.23215 c 0,0 0.359716,-1.21178 0.34545,-1.83355 -0.01149,-0.50046 -0.34545,-1.46152 -0.34545,-1.46152 0,0 0.328532,-1.12247 0.34545,-1.70069 0.02748,-0.93911 -0.398597,-2.79019 -0.398597,-2.79019 l 0.318876,-0.79719 1.56782,1.48809 c 0.427505,-0.15268 0.17153,2.55647 1.992991,2.33841 z"
       id="path5049"
       inkscape:connector-curvature="0"
       sodipodi:nodetypes="zccccccscccccccccccccsccccccccccccscscccz" />
    <path
       style="fill:#d35400;fill-opacity:1;stroke:none;stroke-width:0.05952397;stroke-linecap:butt;stroke-linejoin:miter;stroke-miterlimit:4;stroke-dasharray:none;stroke-opacity:1"
       d="m 39.448517,257.64947 c 0.357012,-0.35225 0.714023,-0.45619 1.071036,-0.59189 -0.356067,-0.20097 -0.849689,-0.27813 -1.456234,-0.25367 l -0.20669,0.64826 z"
       id="path5057"
       inkscape:connector-curvature="0"
       sodipodi:nodetypes="ccccc" />
    <path
       style="fill:#34495e;fill-opacity:1;stroke:none;stroke-width:0.29761985px;stroke-linecap:butt;stroke-linejoin:miter;stroke-opacity:1"
       d="m 38.020472,256.78513 c -0.41776,-0.26056 -0.389467,-0.67555 -2.292394,-0.86435 -1.686795,-0.16736 -4.264072,1.57496 -5.028904,2.445 -1.155162,1.31407 -2.675033,4.54492 -2.675033,4.54492 l 1.72869,1.24014 0.112741,0.78919 2.55545,-4.13382 0.563704,0.82676 c 0.245706,-1.22692 0.621376,-2.44202 1.954169,-3.57011 l 0.112742,0.90191 c 0.218044,-0.48585 0.497341,-1.06268 2.968835,-2.17964 z"
       id="path5051"
       inkscape:connector-curvature="0"
       sodipodi:nodetypes="csscccccccc" />
    <path
       style="fill:#7f8c8d;fill-opacity:1;stroke:none;stroke-width:0.29761985px;stroke-linecap:butt;stroke-linejoin:miter;stroke-opacity:1"
       d="m 38.593569,257.90314 0.0094,0.31943 -0.845557,0.0376 c 0.02006,2.06614 0.223605,2.6644 0.385198,3.5983 l 1.324703,-0.0376 0.0094,0.24427 c -0.829896,0.0628 -1.659791,0.19176 -2.489686,0.47915 l -0.103342,-0.28185 0.948899,-0.33822 c -0.268369,-0.9503 -0.515533,-2.0243 -0.488543,-4.69753 l 0.281852,-0.1785 0.06576,0.80797 z"
       id="path5055"
       inkscape:connector-curvature="0"
       sodipodi:nodetypes="ccccccccccccc" />
    <path
       style="fill:#34495e;fill-opacity:1;stroke:none;stroke-width:0.29761985px;stroke-linecap:butt;stroke-linejoin:miter;stroke-opacity:1"
       d="m 39.072715,257.48036 c 0,0 -0.528993,0.21837 -0.657653,0.45096 -0.148678,0.26878 -0.177376,0.64721 -0.03758,0.92072 0.263271,0.51508 1.446838,0.95829 1.446838,0.95829 0,0 -0.207892,-0.46625 -0.206691,-0.71403 0.0012,-0.26156 0.282121,-0.49624 0.225483,-0.7516 -0.08357,-0.37679 -0.770395,-0.86434 -0.770395,-0.86434 z"
       id="path5053"
       inkscape:connector-curvature="0"
       sodipodi:nodetypes="csscssc" />
    <path
       style="fill:#34495e;fill-opacity:1;stroke:none;stroke-width:0.29761985px;stroke-linecap:butt;stroke-linejoin:miter;stroke-opacity:1"
       d="m 18.065394,264.226 c 0,0 -1.964014,-1.85783 -3.156734,-1.72869 -1.668317,0.18064 -3.148372,1.72043 -3.570118,3.34465 -0.287807,1.10839 1.271221,2.13516 0.939505,3.1943 -0.197048,0.62916 -1.540787,1.24015 -1.540787,1.24015 0,0 0.764825,0.45557 1.164985,0.37581 0.435729,-0.0868 1.014665,-0.86435 1.014665,-0.86435 0,0 0.04744,0.92069 -0.225481,1.24014 -0.172413,0.20181 -0.751604,0.26306 -0.751604,0.26306 0,0 0.895618,0.15449 1.258936,-0.0564 0.871685,-0.50587 1.44484,-1.56225 1.615948,-2.55546 0.173357,-1.00625 -0.895579,-1.99033 -0.676444,-2.98762 0.183091,-0.83325 0.71727,-1.89387 1.559578,-2.02933 0.792411,-0.12742 1.99175,1.35288 1.99175,1.35288 z"
       id="path5059"
       inkscape:connector-curvature="0"
       sodipodi:nodetypes="cssscscscsssscc" />
    <path
       style="fill:#d35400;fill-opacity:1;stroke:none;stroke-width:0.29761985px;stroke-linecap:butt;stroke-linejoin:miter;stroke-opacity:1"
       d="m 13.339109,272.83632 c 0,0 -0.967808,2.19929 -1.700684,3.13564 -0.842461,1.07635 -3.0293456,2.76361 -3.0293456,2.76361 l -1.3286598,1.00979 v -1.96642 c 0,0 3.1146044,-1.67247 4.2517114,-2.97621 0.48433,-0.55531 1.009782,-1.96641 1.009782,-1.96641 z"
       id="path5061"
       inkscape:connector-curvature="0"
       sodipodi:nodetypes="cscccscc" />
  </g>
</svg>
